<?xml version="1.0" encoding="iso-8859-1"?>
<!-- Generator: Adobe Illustrator 18.0.0, SVG Export Plug-In . SVG Version: 6.00 Build 0)  -->
<!DOCTYPE svg PUBLIC "-//W3C//DTD SVG 1.1//EN" "http://www.w3.org/Graphics/SVG/1.1/DTD/svg11.dtd">
<svg xmlns="http://www.w3.org/2000/svg" xmlns:xlink="http://www.w3.org/1999/xlink" version="1.1" id="Capa_1" x="0px" y="0px" viewBox="0 0 471.388 471.388" style="enable-background:new 0 0 471.388 471.388;" xml:space="preserve" width="512px" height="512px">
<g>
	<path d="M223.692,255.195c0-4.143-3.357-7.5-7.5-7.5s-7.5,3.357-7.5,7.5c0,12.286,8.252,22.675,19.502,25.935v2.603   c0,4.143,3.357,7.5,7.5,7.5s7.5-3.357,7.5-7.5v-2.603c11.25-3.26,19.502-13.648,19.502-25.935s-8.252-22.675-19.502-25.934v-22.425   c2.741,2.202,4.502,5.574,4.502,9.355c0,4.143,3.357,7.5,7.5,7.5s7.5-3.357,7.5-7.5c0-12.286-8.252-22.675-19.502-25.935v-2.603   c0-4.143-3.357-7.5-7.5-7.5s-7.5,3.357-7.5,7.5v2.603c-11.25,3.26-19.502,13.648-19.502,25.935s8.252,22.675,19.502,25.935v22.424   C225.453,262.35,223.692,258.977,223.692,255.195z M247.696,255.195c0,3.781-1.761,7.154-4.502,9.355v-18.71   C245.935,248.042,247.696,251.415,247.696,255.195z M223.692,216.192c0-3.781,1.761-7.153,4.502-9.355v18.711   C225.453,223.346,223.692,219.974,223.692,216.192z" fill="#FFFFFF"/>
	<path d="M402.354,69.033C357.837,24.517,298.65,0,235.694,0S113.55,24.517,69.034,69.033S0,172.738,0,235.694   c0,56.431,20.255,111.027,57.032,153.731c5.405,6.275,14.876,6.984,21.155,1.577c6.276-5.406,6.982-14.878,1.577-21.155   C47.673,332.587,30,284.943,30,235.694C30,122.274,122.274,30,235.694,30c45.086,0,86.821,14.592,120.756,39.286l-13.063,15.363   c-20.971-14.958-44.942-25.525-70.313-30.717c-5.413-1.114-10.695,2.38-11.802,7.792c-1.107,5.411,2.381,10.694,7.792,11.802   c36.796,7.53,70.309,27.729,94.364,56.879c24.373,29.533,37.796,66.926,37.796,105.289c0,91.273-74.257,165.53-165.53,165.53   s-165.53-74.257-165.53-165.53c0-27.196,6.411-53.213,18.73-76.656l22.315,13.655c-9.623,18.936-15.055,40.346-15.055,63.001   c0,76.942,62.598,139.539,139.54,139.539c33.367,0,65.658-11.964,90.926-33.688c4.188-3.601,4.664-9.915,1.063-14.103   s-9.913-4.663-14.103-1.063c-21.642,18.607-49.302,28.854-77.887,28.854c-42.86,0-80.517-22.677-101.621-56.658l25.592-13.011   c16.275,24.729,44.275,41.088,76.029,41.088c50.154,0,90.958-40.804,90.958-90.958c0-50.155-40.804-90.959-90.958-90.959   c-11.799,0-23.283,2.229-34.134,6.624c-5.118,2.074-7.587,7.904-5.514,13.023s7.906,7.588,13.023,5.514   c8.453-3.425,17.411-5.161,26.624-5.161c39.126,0,70.958,31.832,70.958,70.959c0,39.126-31.832,70.958-70.958,70.958   s-70.958-31.832-70.958-70.958c0-11.676,2.894-23.247,8.367-33.463c2.608-4.867,0.776-10.929-4.092-13.537   c-4.867-2.607-10.929-0.777-13.537,4.092c-7.025,13.11-10.738,27.947-10.738,42.908c0,11.278,2.069,22.08,5.838,32.056   l-25.592,13.011c-5.685-13.916-8.828-29.13-8.828-45.066c0-65.915,53.625-119.54,119.54-119.54s119.54,53.625,119.54,119.54   c0,20.449-5.249,40.625-15.181,58.347c-2.7,4.817-0.983,10.912,3.835,13.612c4.817,2.7,10.913,0.983,13.612-3.835   c11.602-20.701,17.733-44.259,17.733-68.124c0-76.942-62.598-139.54-139.54-139.54c-47.143,0-88.896,23.504-114.17,59.404   l-22.268-13.627c2.367-3.425,4.865-6.783,7.509-10.063c23.263-28.85,55.843-49.274,91.737-57.513   c5.383-1.236,8.745-6.602,7.509-11.984c-1.234-5.381-6.594-8.745-11.983-7.509c-40.246,9.236-76.766,32.126-102.832,64.451   c-26.46,32.814-41.032,74.146-41.032,116.38c0,102.302,83.229,185.53,185.53,185.53c10.566,0,20.923-0.901,31.011-2.605   l4.444,19.701c-11.522,2.01-23.367,3.067-35.455,3.067c-43.846,0-85.688-13.604-121.005-39.339   c-6.696-4.879-16.078-3.405-20.957,3.289c-4.879,6.695-3.406,16.078,3.289,20.957c40.482,29.5,88.435,45.093,138.673,45.093   c62.956,0,122.144-24.517,166.66-69.033s69.033-103.704,69.033-166.66S446.871,113.55,402.354,69.033z M290.659,433.919   l-4.441-19.688c77.826-22.055,135.006-93.743,135.006-178.537c0-42.998-15.047-84.911-42.37-118.019   c-6.091-7.381-12.728-14.243-19.822-20.552l13.007-15.299c42.508,37.71,69.348,92.71,69.348,153.869   C441.387,330.084,377.476,409.816,290.659,433.919z" fill="#FFFFFF"/>
</g>
<g>
</g>
<g>
</g>
<g>
</g>
<g>
</g>
<g>
</g>
<g>
</g>
<g>
</g>
<g>
</g>
<g>
</g>
<g>
</g>
<g>
</g>
<g>
</g>
<g>
</g>
<g>
</g>
<g>
</g>
</svg>
